<svg xmlns="http://www.w3.org/2000/svg" aria-hidden="true" style="position:absolute;width:0;height:0;overflow:hidden"><defs><symbol id="icon-arrow" viewBox="0 0 32 32"><path d="m17.562 16-6.6-6.6 1.885-1.885L21.332 16l-8.485 8.485-1.885-1.885 6.6-6.6z"/></symbol><symbol id="icon-heart-empty" viewBox="0 0 35 32"><path fill="#fd5103" d="m17.684 32-2.564-2.302C6.013 21.554 0 16.183 0 9.591 0 4.22 4.28 0 9.726 0c3.077 0 6.03 1.413 7.958 3.645C19.612 1.413 22.565 0 25.642 0c5.447 0 9.726 4.22 9.726 9.591 0 6.592-6.013 11.963-15.12 20.124l-2.564 2.284z" style="fill:var(--color1, #fd5103)"/><path d="m17.684 28.632-2.076-1.817c-7.373-6.429-12.24-10.67-12.24-15.874 0-4.24 3.464-7.572 7.874-7.572 2.491 0 4.882 1.115 6.442 2.877 1.56-1.762 3.951-2.877 6.442-2.877 4.409 0 7.874 3.332 7.874 7.572 0 5.204-4.867 9.444-12.24 15.888l-2.076 1.803z"/></symbol><symbol id="icon-heart-filled" viewBox="0 0 35 32"><path fill="#fd5103" d="m17.684 32-2.564-2.302C6.013 21.554 0 16.183 0 9.591 0 4.22 4.28 0 9.726 0c3.077 0 6.03 1.413 7.958 3.645C19.612 1.413 22.565 0 25.642 0c5.447 0 9.726 4.22 9.726 9.591 0 6.592-6.013 11.963-15.12 20.124l-2.564 2.284z" style="fill:var(--color1, #fd5103)"/></symbol><symbol id="icon-toggle-false" viewBox="0 0 64 32"><path fill="#fff" d="M16 .484h32C56.569.484 63.516 7.431 63.516 16S56.569 31.516 48 31.516H16C7.431 31.516.484 24.569.484 16S7.431.484 16 .484z" style="fill:var(--color3, #fff)"/><path fill="#fd5103" d="M27.2 16c0 7.069-5.731 12.8-12.8 12.8S1.6 23.069 1.6 16c0-7.069 5.731-12.8 12.8-12.8S27.2 8.931 27.2 16z" style="fill:var(--color1, #fd5103)"/><path fill="none" stroke="#fd5103" stroke-width=".968" d="M16 .484h32C56.569.484 63.516 7.431 63.516 16S56.569 31.516 48 31.516H16C7.431 31.516.484 24.569.484 16S7.431.484 16 .484z" style="stroke:var(--color1, #fd5103)"/></symbol><symbol id="icon-toggle-true" viewBox="0 0 64 32"><path fill="#fd5103" d="M16 .8h32C56.395.8 63.2 7.605 63.2 16S56.395 31.2 48 31.2H16C7.605 31.2.8 24.395.8 16S7.605.8 16 .8z" style="fill:var(--color1, #fd5103)"/><path fill="#fff" d="M60.8 16c0 7.069-5.731 12.8-12.8 12.8S35.2 23.069 35.2 16c0-7.069 5.731-12.8 12.8-12.8S60.8 8.931 60.8 16z" style="fill:var(--color3, #fff)"/><path fill="none" stroke="#fff" stroke-width="1.6" d="M16 .8h32C56.395.8 63.2 7.605 63.2 16S56.395 31.2 48 31.2H16C7.605 31.2.8 24.395.8 16S7.605.8 16 .8z" style="stroke:var(--color3, #fff)"/></symbol></defs></svg>